<mxfile host="app.diagrams.net" modified="2023-04-21T04:02:30.272Z" agent="Mozilla/5.0 (Windows NT 10.0; Win64; x64) AppleWebKit/537.36 (KHTML, like Gecko) Chrome/112.0.0.0 Safari/537.36" etag="UPQ4ThIpWha4WVwLX2IX" version="21.2.1" type="github">
  <diagram name="Page-1" id="Lq9akDUjuutflb25I96s">
    <mxGraphModel dx="1434" dy="756" grid="1" gridSize="10" guides="1" tooltips="1" connect="1" arrows="1" fold="1" page="1" pageScale="1" pageWidth="827" pageHeight="1169" math="0" shadow="0">
      <root>
        <mxCell id="0" />
        <mxCell id="1" parent="0" />
        <mxCell id="ZfP4bqIfxaH6RmqjadKB-6" style="edgeStyle=orthogonalEdgeStyle;rounded=0;orthogonalLoop=1;jettySize=auto;html=1;entryX=0;entryY=0.5;entryDx=0;entryDy=0;" edge="1" parent="1" source="ZfP4bqIfxaH6RmqjadKB-4" target="ZfP4bqIfxaH6RmqjadKB-5">
          <mxGeometry relative="1" as="geometry" />
        </mxCell>
        <mxCell id="ZfP4bqIfxaH6RmqjadKB-4" value="" style="shape=image;verticalLabelPosition=bottom;labelBackgroundColor=default;verticalAlign=top;aspect=fixed;imageAspect=0;image=data:image/png,iVBORw0KGgoAAAANSUhEUgAAANoAAALLCAYAAACfCJzMAAAAAXNSR0IArs4c6QAAAARnQU1BAACxjwv8YQUAAAAJcEhZcwAAEnQAABJ0Ad5mH3gAAEPsSURBVHhe7Z1tjCVHee+fxdc4GDDOhgUBMW+ZWa6HwWAgiTOrCzdfEDMWaPiyX+xoA3HOCoEyg5T5NtJ1pP1094NnIlCyk3sFq0BeVrpiCPIM4ksC0k4cBWJwhvH1niEOMY6DfW2wCbaRjefWU111urq6qruqu0/tefn/Vr1zTvc5XV3d/T9V3V3/5zl2JCAAwFB5mfoLABgiEBoACZBdx2Mb31FvAQDDYCC0o6c/o2YBALoGXUcAEgChAZAACA2ABEBoACQAQgMgAUO763j9a/4nPUfXqnfV4I4nmHSGJrRjr7lHvaqnXPZTdPbuB2hLvSO6gTb+4H20cpxHi9nLiHp3/jZdmDFGkh0+RMe++Jh6Q7Tw4dvo8m2/pN6Vv19e/q80NyjPN+952vzf99HqI+rtTbPU/71fpf5X/5aWvq3mGRTL0PB6n6Dlu/8rLdKT2Xa97xY6+shxtZyxyi7U7Q20I75LNWXufvXvaIlc6w0oT+Ku64zeZjWbKR2LAa71MuZ8Xp/eHw3q+tofRB13va28f86dsI4Pl/3gCWvfNGeoXce7bvvVwuSb54bF9dt0dPd/p/6HiVa//EM6pGOlZUd3voG2vvh/aVcvkwfnZ/nyu2+j09+7j07d93y2XGJ8/+5baP5r99Gxrz6llgXw1KN06u776OCDeh1i+hjRvYdEix9R78V6e0Y5ZZG5uIEWHn+Azh7qelpwuV8kccKpcv/gVXSlrkzxnXOPv4F6j/8rbT5lr7emPKairhnmvvzvHpE1ILauUmQRx904bxZPzRJ97Qf5OcQ/LN8Q6zr1K+p9e5Jfo/3sxV+oV+HM3PZW6j3yI7rXpYWZE2KH/4yuyGW8gx4Tv1Tmr+Yv0crH7B1pcpwu/MEsLXz7Cc9yG1HGl/s0b/9yH38TrXRwkp3+4Cztf8P8UTF46j9p76ZXkahNRkCZh1d+RPTOt9DaO4kuXXlOzc2pLG/Ida0kqq4Njrt53oh1r7/vMTp3n9o/hz+g1de91Wp52zFUof2v+35YmJi//NZjpXmtOHyCtm56Pd3OLfxTT9KlR95AyzPZogHHf4VO36TF6EAuf4y2B7/SFfjK6Irjv0rrr+vTGX3QTfjkeMSzzMnzdO/3hJhOvoJmTr6e6HtPlgVVVd6w61pFTF2bHHfzvBHIVk3uHyXam7trzZihCo2vvczJN6+Ow/v+tbBTiJ6h1T/+Wzp2999l/ejfe5O4XlC/PuavYIFn6MAntFi8ZXTD4ke4O3vg6OqJ1ld1ibjulV0+hk9AUvuNTzpy9wr85Qlq62oci7sfqukVmJ/VU/G6KSeyrkHHveK84VZN/OCcv4/32Sytdfzjkrzr+P9e9kr1qo58p8x+7ZW0Iy++dVOu+tquLt8j/0l99bLIDTRXeV1bt9zAW0ZXiJPszlfS6uUn1XsT0SX6Pb5mEV2+L/5t5QmYdRt/Re23X6LbRffRvc6K8mrral6jvSO7ieGleD2XTXyt5SO8rmHHveK8ESzeLK7bvia6yh80z7VuGJrQfCt+7Us/U6/qCDiA4lfo4od/lvetfV1A2bV4JZ30Camw/Hqau0nOzXnqOdontTymm9mGmbfQhrxRod7byLrfQFsPuoTDPEXnv/YM7fGNHtV6zIr35LsWdZWXqq511NU19rjb541GXrdF/OBGMDSh/UJ0C/kWvzkx9rzQ7qMPvlGSd3vEL+AHrbuQfFv3j8Vv3Yff4vm1zZbP36luKYt1nHydaE2Nu5y7l/u0974Tg+VZGdYv7FOP0mZd9yaK7GJ+/4tG1+pQlDHo3vH11zO0cOJ69d5CXoPMUl/ftZPTbbThFY6jvGR1dRBT18F2hh/34nkzfJJeo7mm9hynNfP2/8w76OhOoqW79bXAA0R3/rZ1e928VuBnOMW7aosfESek6IjMqnUsPS5O2I8YF8dchurO6Nbi2JeJbu/6poH6JR8w8wo6GGz3fbT6ulu8jw12H3yMFgbdRg13H6taBqs8prauxeuu4u30FkTUVRJ03E2s82bIwI8GQAIgtCSURyXokQ7u7uw4M011DQdCAyAByW/vAzCNQGgAJGDQdQQADI/8Gm31PWoWAKBr0HUEIAEQGgAJgNAASACEBkACIDQAEgChAZAAr9DMZ2v8Wk/m+1d/7oHBvAGHm3Tq2DE6Zk6nNilzZuzSWXuZmM7uyoUDDjdPFZaf2jR9He51OD8zKJc5pM1T/NmzYmlOuaxd9TnHVFifibVuYx+Ydds9a83bPZuvW078fb0ux6TL96w/uFyBcx87jl1xv5rY+zPkuEwvTqHZ4vnxJ98ln7Pdf8c75Ht+zdMP73qnfO9kYYP6R0d0tNMj2lul2cIZ0aMdXna0I921W0v5yc8nxezqHvV2eHn2/b3VWTpW+L5Ar19M/Y0F92dqKJUltuc0zdLK5Xy9zMJGP1t+eYVinTBb5zzi5JN6aUvsih1V9hHxriJRQl35h/deoj25hGifQ0M58JYrcNfbwNi3l1cia9zBcZlEnEJ7+BNz6lXGjdddI/++9YaXy7+aG//kn+sfdM/OUXa6uFikZXly7ctQYnzyneNh3+Lku7DI8wWLF7ITcOsc+X4cZ1YukjwnKz5TwlWW2J6V2BOrDvEjc95xnmmxLMzlkS4WL1wQW1DHId17SXxzoUc9Uee9S/e6BeUpN1m9BY2Oy4TiFJotKM0vC2FpuNW754NvUu8q6B+UTqgBg4O+Tnyc9cnXWy6ebrNzfLT26FIeTNBihm4/nX3mIDCYh6+sTlFiMFtszczJefmXf/GjuleH95LU2ek1WuM6710yYiwqKspNUu8B8cdlUgm6GcKi2v7+04XWi1+v3nqifI2m4e4i99NV96jYBdmiJV42u0rz3H3Jf1qd6JMyBF9XyqZ/IOVPLv13xxytXdwQpWzROVtMoqXWXUPZvQq8nsmEskCnb59R+8X1A+QvN6je+tiJqateX+hxmVSChMbXZsu/9hr5+ic//8VAXN95oiLmntFXLwuJr9H6sluxtXSqtltxeGVf/p0/Wd+9CflMToJf2pkVWpeXqedpW83SzKxcHlzLMHurZ2r2heo2iu1enVU/YvzO1X2sKJe/X1lv49jV/AYGE3dcJg+n0Fa/8aj8y4JiMd36pYfka574eu3M3HH5mufrGyTxiIt+PhP4pDmTXbjrlmtru/gzWv8rrE/AHtX2iBbmZPy/xeziMMkv7eJa1rpsZboowYLLxFYjANVtzIWQ/Vg5u48CV7kp6x11XCYcp9A2xLWXvrP4nhOvGLzmifnCh94sb5jo5Y1ZXFMnirpwd9342D1L/MO9sHFRXse52D07S6vieC5srKmbCYu0xis2bwjsns8+c/p2eedOl83dtrx7tEubAd23aETrclFWNOdw86zReukTsrpLN7iBoutgXAM5r18d5aasd/m4TC9BXUcXvhsmcehWLb9wX7zAXSnRqnLXSF3j8e3t0m1m4zpiaWuBNvrFW9HcSrBot5Z86+Hb6Lr7qj5zbIkuqaVdM7OyLh9l5OzndTzGJyTX4bL3x8QUI1+faQY3VTx3H8vlBtTb2LfRt+Zrjsu0Aj8aAAlo3KJNJ67RD+Vb6JPFNNa5e9CiAZAAtGgAJABCAyABEBoACYDQAEgAhAZAAmqF9uwLL9EdX3qQPvC578jpwt8/JucBAMLxCu1bj/yUfn3jn+gDn72fHnr8WXrVtS+jG697Gf3Zff8u5/EyJ2xotJ67ZKPSHc9j5KgDz3zvejLindGmI1i/tgY06zL58zXll+jaLe3aL4PPBKy3hHt9zjqVtqmmvNh9NYV4hfZHX/+BHL2tOXyG6G/uukW9I7mssmXzuXR9o/oD5uv1tHdGu8cIlscSCnz1MOETTdmBsu3p0i3tcqPXr9eLUR/+rssBXd6mwPJC9tWU4hXaY8/8XL3y8+ff+pF6lRBxUnfhEJ65/TRJqRljBLVLwBxLGMJAoMaI4E7d0hLLjd4Bbgd0zDaBUFrdDPnmv/xEvUqHPqlbO4RnbqesUTtQ2fx3aZsFvHA6OkXuUN3SmsEPTOZG7waHAzpmm0AwQUJ75hfX0ndXyoF4HvlJRatnjOIu9Exazu/OGa1Psi2S9rfdbfGKTzCj28j4tstkqG7pODd6U3S3NWybPITsqymlUmjXXXNMiuzKH95C7978Hi1tPaCWZNx043XqlQOjv144NzqZ340zWncf2Wiaubgd3UbfdlkMzy0d50ZvSuaADt0mD4H7ahrxCu033/xq+son3iVF9v57vk03XPMCPf6zF9TSjA+8/Ub1Kh2dOoR193F/m85n/aXobqPNcNzSMyU3ejdoYSkHdKSDG4TjFdqzLxzRp7/clyLz8Tvvf716lZBOHcKq+7i3RVtSZ1a3MZAkbmnbjd4BtgM6eptAMF6hferUG+n7Tz6v3pXhfvj111b0PI3+eqsAmqX1BDiEI9A3MlgYzruNQfVI4ZbWrRrXu4UfzKhP0QHdZJssujrmE0itH42fld311w/RD5/Obnzc8d7Xy5asUmQAgAK1amFB/cWdN9M3P/UeOZ39rTdMscjGwW08Dts4fcBhDUAC0P8DIAEQGgAJgNAASMDgGg0AMDxwMwSABKDrCEACIDQAEgChAZAACA2ABNQKDVGwAGiP964jR8H65P/JArAwr3vltfRfhCz//aeZJ43H0P3j6nvlawBANd4WrXkULB7UWu0E5ihWThtFIWRbNhBWfnYwL5/coQLUgFqPRSMLUWdtmxUmrrje8gDd8nI9YNf32erPZJtaVw4Yd7xCG1oULA4ys9+j3r4ZeUkgQ7aRCq0mpv4cXREnIWcAle9luLXMP8Xv/eHMFmjBXrdkl86zy9GERba0P1gnO4pPX7ID7ORl8jbMO8Kz5Zif9W1j8TO55T+mHDButLoZ0iQKFrt4SUZYoqJrt39AeyqRu2RmhVYaxp2Yn7fWzXDwnZ4QuHortoQ2z21Rb8c0aM7QykXO63tetUA2i3Shv0ELW9ue5V2RqhyQiiChNYqC5YRdvEJnt8/IwDhCDblrd3GZenurdKaDLtPc2rpoEUyxsKhEy7W2rN4LZHwMFSvDRMYRqYidKJeryFnDJFU5IAmVQmsVBcsFn9ykAuDwiSTe5Q2P+BVXXbf82qUpHGzUOEnNck3MFrRA0yhbKnqUus5y18H8DAyZ04JXaMOIgpV1G83AL9xLM081FXpadJv2l9qJbXFNrONcFjFq9/wqza87QmUPgqfa1MWN9C33XX+ZmJ+pi2bcRfxKMAp4hdZ9FKzsZoQOMMoTx88n13WIuD67uLEg4y02RreYu3zzZYPWnF1ER9dMdinnSYY5dFG3vCtSlQOS4BVa6yhYNnwzwgiwmU0czUpHCt4shWwzY9nHw1Gj5ml1adVoRU2yqFLFiFK7dHZWfF6FXyuTLZ/fCYmr34ZU5YBUeJXy/pteLR9If/PTt9LJE9fT9S+/Rk6/f9sb5bzqh9XFaxW+Xb67veWIm5jFDZQt1+JJOhh8Z5ZW53faZySRsRB7tO5bz+IFOtqhLOS2nOTzBatcsy7naE50+9pF4S3vm/L8LsoBowT8aAAkIKLvN0qUR1LgDh4YZdCiAZCAMW3RABgvIDQAEgChAZAACA2ABEBoACQAQgMgAV6hmdGL+bWezPev/twDg3kubCe13y29Sc1c2ep5mnN+tr46h7Z7vRVEObLNOpWf/WXF+uYXCd+XstLleQPCysvhz9e5yEEdTqHZ4vnxJ98ln7Pdf8c75Ht+zdMP7yp71AY4nNR+t/TJ7AM+fK5sCTuql7wnS6VDu3K9DiId2X32kBZyTvtG9xvzd+zxl4KYfXnyfJxr3FVeJWYd4AQPxSm0hz8xp15l3HjdNfLvW294ufyrufFP/tn7oNvrpG5A3bpOr+eWmBjitjHekT2zsk692ETrbIClovE0fDsbuMYd5YUDJ3goTqHZgtL8shCWhlu9ez74JvXOpsJJHU3AumZXaH0+1p0duY3SttLAkR2LdDmYJtWI7WyyjaXyIvHZjUCBoJshLKrt7z9daL349eqtJ9zXaHzAvU7qSALXtXiBuzFnwrqATJNtjHRkH26es05in7vamL+9TEeXDZNq7HYGbWNFeWAoBAmNr82Wf+018vVPfv6Lgbi+88Rz8q9NvZM6nPB1iW7MznxwOY22MciRnZ/Es6vztFM4ic3rG9NrpuY7umHR2xm0jf7ymgEneB1Ooa1+41H5lwXFYrr1Sw/J1zzx9dqZuePyNc/XN0hyIpzUtUSui/1nFTdGchpso6+LJLtrphPaJ6YApLN8n84NmuXI7QzeRkWpvAb41g0KOIW2Ia699J3F95x4xeA1T8wXPvRmecNELy9Q56SOIXpd2YX//tISbak5ThptYxNHdjx8A2XQBW5S/8htLJQXTbZuOMHrCeo6uvDdMKl1Unsxr1+y5zON1qXijVTReBuDHNlVlOtYZpHW1GOBzSbbGb2NeXlhWjPrACd4KPCjAZCAxi3a5FIe/TAd7u1prXca0KIBkAC0aAAkAEIDIAEQGgAJgNAASACEBkACKu86ch5rTrFrZ/98ww3X0f/40FuIw4YDAOrxtmg6WbwWGSeLf+Orr5WveR4vAwCE4RVau2TxxQef2SDf8vxsCFL4/OJg4UPaPGUsP6VyoXkt/hwuIXsAy58pDX9i97QsoK5ck5q6lr7I83V4g/J33UOyTMK/Ex76gPdLcZ6/vqApXqGFJIv//UsPqVc25gh2j2VfTPn4u7D5g/VwYvljs3Swni87ukh0rzhBQsIlLC73aM8ykPH4x97AMenbfhe+z1aHWMgwvxsaFiDgO9FhJGLqC5rQ6mZIfA7rLhAt2RkeMW6dEDHJ5WfnLB/WLm1vOZzJLYkLsdAkLID7O+GhD0AqgoTmSxZ/VZD+p5aisH1bbEfpLXdv9YgNseDzk1VR+k6XYSRAV3iFxjmsv/b7t9C3PvM+mb/6v332O6U0u3e815da17RSmANTizaRvMcTMt9Yj9euH0pmNdlXQTSK3UbGt/0uqj8bHWKhLbGhDyQx9QVN8AqtXQ5rs8/vsOyXrgVC5hvr8dr1w8l/7Q/pyr5txfdtv4u6z8aFWOD1xYcFyL/TLIxETH1BE7xC6zyHdVc06V650L/2u0YLMCxCQyw0CQtQ+E6XYSRAl3iV0i6H9TDRdn3rNvThJm1GnU3q196bTL5LQkIs7DYIC2B9p8swEqBTapskbrX+4s6b6Zufeo+czv7WGwJasuI1V/3zIR+e9bBdv88nbr7s2Bmi2yP7PNx9XBD/+MZBkZjtD/ysM8SC+d3QsAD+73QZRgJ0C4yfACTgKlxkjSPlERnDvTuXujwwbNCiAZAAtGgAJABCAyABEBoACYDQAEgAhAZAAiA0ABLgFRrf8tfwaz2Z793J4u1nQCEJ0w0iE52Xl9tJ513zYt3ZhS8reL362VbddoFpxyk0WzzxyeLz0eD9qoTpdqLyyGTs4a5kg0bu7JCRkC23C0w0TqF1kSxeU5kwvZCovEGic7agRLmSO3BnB9HELQ0mGafQ2ieLD0SONlcWFZ9zWtpiKpKxx9hmunBnh9KVnQdMBEE3Q1hUUcniDSoTptuJyiOTsTeitTsbgHiChBabLN4UkzdhuqtrFZTo3EWEK7kDd3Y4TdzSYBJxCq1dsnjGvDHgMTLaicp9Xa0613Fh+SzN2ZavwyviKlAtT9mdq9tuMF0IMRzRPffznygefvrn6pXNzlGPFo6E0BzYy6z3O70jop6Yq+HldLSQf8DxfTrq5V/gG5lHtLBxlK9SvC9+gKPCFr4jWtejDfN9qRwX/Bm9rfXbBaaboK6jC98NkzisROVBic6rXcmLF/q0Qas0q9axtL9B/eIHOnFnl6neLjDdwI8GQAIat2jTQ3nUB9zOIBa0aAAkAC0aAAmA0ABIAIQGQAIgNAASAKEBkAAIDYAEeIXGt/w1/FpP5ns4rC2HdbkyxbILdcu+W1emnYs6I7A8ibuug3UYU6VPtYNt93+e82jXHDdH+dX46q1ofZ4Vl1fuO4FTaLZ44LAOGRlck7Oay5UjylQZ/Tm6UlemIxd1TkCO7Iq6Zpj7smLIWEfbXp1HuwJP+V7q6t3JeRa47xROocFh3YzKnNX9A9ozvXABZdbloq7Okd1hXYew7VFElV9X7xTnWRmn0OCwbkhVzmr+UdmLyGctTojaXNRV5XVZ12Fsewwx5dfVO8V55iDoZgiLCg7rMPw5q8WvouqihPTp5QkRkIu6Mkd2bV1Nx0HVdc9wtj2cyPLr6t3JeRa67zKChAaHdQzipPDmrBZdlMtZ3dmmU3XChOeiriivtq7mdUZdptFhbHsM4eXX1ruT8yxm33mEBod1S+pyVsu6V2XhjMxF7SpvWHXtetslNcfNpK78unp3cp41QIgBDuvOHdYCsU5x7oiy1PwdUcZgef9InCtGvRhjHbyNRh0ysu9k2x1QHlNZ15A6KjrddqZcduVxqy3fou4Yy+VtzrPy9tfRWGh+qjaivKy/sVA8MGon6amws1SF8+WucrIDMfhM6aALBiel7zMhO5I/UyE0gazbYL617cWKCfJ18EnmOpHk+uT3QspTeOtqbY+Y/Cdvl9vOuLa/6rjVle+g7hi3Os/s5TXCF8CPBkACgm6GTDflUQBhIxPGkXGq63gdF7RoACQALRoACYDQAEgAhAZAAiA0ABIAoQGQAAgNgAR4hca3/DX8Wk/me7fDGgBg4xSaLZ54hzVzWGGhj7etV9rmQ2zpnhG+h5unxHd02eWHoNnXfPN9+Mq06skks9TzZ/UD3br1gq5xCq21w7rWQl9BrG3+5PkgW/qCMxxANtK8iOk8MF26xvwdKwSDk4BQA1fBUp9Tt17QJU6htXNYt7TQx9rWA23p8/MOSz07vHs9IdxICiEY/NSGGrgKlno3w1ov0ATdDGFRBTuspW+nhYW+C9u69BwVhTC3ti5+tc0TmE900ZqsLav3EZghGKpoEmrAse0FhuYzG9J6gSRIaNEO61bhArqyrdu29EVa7hknEp/o2m5fwGdRrwjBUEGzUAPDs9SDq4NTaK0d1q3DBXRhWy/b0hfX8q7c7nnRvV13icW8djHd4Wp+dBerSaiB4Vnqq6krFzTFKbQNce2l7yy+58QrBq95Yr7woTfLGyZ6eYHaLkgC27rPds6f50AxuxxzcIPWmpyVcpuMEAwhxIQa8G27pm55U4a1XiAJ6jq68OewFq3ROt+Vs1qiw03alO9n6OS86O4YQVW5ddnrLWe/xkIE+TnMYcv2RA/L9zOryzK7TLt0dnZV/FqsOX7d+fOidVkSywfBY+LhWJXe7qCT7CbH/tISbak58dvOZMvnd9q2XDbDWi/QNBZaJTUJ2SsTui+epIPBNccsrc7vVEcKDkowb8Cty0KP1r3rNK95fM+XrCT3IajWuUAHyfHDttdF3XpBl8D4CUAChtOiTQ3lERZX/87fKG4TQIsGQALQogGQAAgNgARAaAAkAEIDIAEQGgAJgNAASIBXaHzLX8Ov9WS+D0sW7x4U7E6CLnC4q0PXmWF/1nQ0B6ynteO5xj0ucbvP65KvF+H1WvunXJli2Y59W1em+zgFlidx13WwDmOqPqb+cyF8NMzVwyk0WzxtksVnQ7GsB6aHniToHnd1hjlKvW64UP5ZUTyS1TOxznUu03ecJAmT1ZdoeQyuAk6hdZksnmZO0rzlRvYmEm+QlLwOJKtXjHOy+krGwx3uFFqnyeJluIB14+StSCQenZS8JUhWX8EIJauvI+YYXCWCboawqOKSxRsjw7m7Yv6k8QHwJhKvclebo82trmgFSFaviXSuVx6nnDTJ6sefIKFFhzIw+9DiWuCccYFcn0hcdNec7mqzX17nm8oPIJLVm/j2bZnRS1Zfx2i7w51Ca58s3kA267pFiEgkrvxb/qTkVQQcQLl+JKt3M8LJ6l3UHaMRwCm0VqEMbOROUL828ppog/pSAHrq04Y+IFHu6vYUndJdOJ5r3OODMqzW5FC7z7siu4lTcHTH7Nu641TCUV6yutrHYDQJ6jq68IcyYIy+96zo6fezO3m721u0UAohwN0S9eta6a42+/NdPTuxnNIdOJ4r3eNMjfu8M1SrNSDCuV57nFzY5TG1dW16TKuPwSgCPxoACWjcol19yiMEJvPO1bTUk5ncuqJFAyABY9yiATA+QGgAJABCAyABEBoACYDQAEgAhAZAArxC41v+Gn6tJ/M9ksUDEIZTaLZ4uk0WrwgJGVAaFcvzMyeA34K/WXro6Rpc6w2lIHFve+tQA7XfAZOKU2j2w2vtsObR+hoW4+cPnnI/6K6zsAeGDKiyyvst+CfFUmP0viuxe5VFv2Lb24YayOs7HvZ70B1B12jag7Zy6wk1JxPjZ77x6MBSk1NnYRfLA0MGVFvlA3Ekdvdb9GG/B8MhSGgcwuDLH3mbtM+YsNg2739CvVNIW0yFhd23XPqXrJABVVb5UEqJ3Sss+nXb3iUp/VrgquMUmm38ZD721YcH126/+/V/k695cho/6yzsESEDKq3yXgwbhR2ugMVUZdEfcqgBMJ04hdba+FlnYY8KGVBlzfehrocc3bNai/7QQw2YjLb9HnRHUNfRhdf4Wdcl8i2X3TaPHb3Omu9DmhHNxO41Fv2U3bmq+oKJo7HQ/NRZ2PVy807gbk3IAJdVPoxCuIJaiz7s92A4DEFogjoLe1DIAAuXVT6IPFzBZohFf2ihBsbPfg+6A8ZPABIwnBZtqiiP+pj0YKAgHrRoACQALRoACYDQAEgAhAZAAiA0ABIAoQGQAAgNgAR4haZH6jN6pL6ep1+HJovPDJ3l+aWxi41c1xmHm6fEd+xE5SZ2+eZnO9q2yuX2trnmDcnZXa5MsexC3bLv1pXpdqgHlidx13WwDmPyHHIBf9aqqzG598/VwSk0WzytksWLKR9aVeF8DnZduxKXZ4OF68nL7yOJfAaXiyTyQ8cptE6TxftomKh9ft6RuJwHC/fEgVdvQ0ASeQWSyCfBKbROk8X7MJ3PEa7ruTUejW+e4CwE0dqsLav3HdBw2wrEWG58ZXQFkshfdYJuhrCoGieLF1Peelc4n4Nd14u03DN2Hh847ZiOAEnkNeKXX3WFi8fKg7m/+URGEvkggoTWKll8oY+t5rua9AjX9eJa3jXh1LXz62Yy+CryA4gk8iaiK4wk8kPFKbROk8W7sJ3PviZedjMcLmT9S7rLF+UbtBZ8JAIOYNtt0xSWI4n8gFR1ZeqOUUKcQus0WbyHdona+fPi13JJLC8ZOduDJPKeJqDWoW7jKC9ZXe1jcHUJ6jq6qE4WH0KTRO0G/Gu50KP1oFvcsSCJvAskkW8O/GgAJKBxiza6lEcITKbjeVrqyYx/XdGiAZCACWzRABg9IDQAEgChAZAACA2ABEBoACQAQgMgAV6h8S1/Db/Wk/keDmuNr84aXm5vm2veIXJnTyhOodnigcN6vB3WrbYLdIJTaHBYT5bDOme0XMfThFNocFhPmMPaJKVNBQwIuhnCooLD2sX4OKzB1SVIaHBYT4LD2mQ0XMfThFNocFhPqMOaqdtuMBzESXdE99zPf6J4+Omfq1c2O0c9WjgSJ7SFPd96v9M7IuqJuRpeTkcL+Qccn69YXqJqub3MVVbEtqnlvfwLfCPziBY2jvJVivfFD8j6mLNE63q0Yb4vleOCP6O3tX67QBqCuo4u4LAeF4d19XaBNMCPBkACGrdoo0t5NAQc1uBqgxYNgARMYIsGwOgBoQGQAAgNgARAaAAkAEIDIAEQGgAJ8AqNb/lr+LWezPduhzUAwMYpNFs8MQ7rStt9ZTgAF/ZD2SkKP1CuTLHsQt2y7yLB++jiFJr98Fo7rHm0vobF+PmDp0qf9druT54PCAfgIl9Hf4rCDyDB+2QRdI2mPWgrt55QczIxfuYbjw4sNdU0CQdQBgneFUjwPnYECY1DGHz5I2+TCQpNWGyb9z+h3lUgPVANwgHEgATvFSDB+9XGKTTb+Ml87KsPD67dfvfr/yZf8xRs/OwgHAASvGvEL7/qCldfDylYKEjwflVxCm0oqXUbhwOY5vADQlBI8D4RBHUdXUQZP33dAdklqbPVBxzASQ4/gATvE0FjocUhfn2jE67HgQTvniYACd5HgkRCE8SGKogGCd5dIMH7aADjJwAJSNeiVVIeIYDwA+PONNW1HrRoACRgRFo0ACYbCA2ABEBoACQAQgMgARAaAAmA0ABIgFdoeqQ+o0fq63n6tSuUARzW2ciU1g7r2u+AccIpNFs8MaEM4LBGgndQxim07pPFw2HdnMl1HU8TTqF1nixeWh/gsG5MSpsKGApBN0NYVHHJ4h3AYQ2mmCChxSeLdwCHdUsmz3U8TTiF1nmyeF/XJ8hNa94YQIJ3MKaIE7jjZPEaK1F5bcJ1F3aycxNXIvSY8lzfR4J3MByCuo4uopPFw2EdwXS4jqcJ+NEASEDjFq1byqMh4LAGkwRaNAASMCItGgCTDYQGQAIgNAASAKEBkAAIDYAEQGgAJMArNL7lr+HXejLfI1k8AGE4hWaLJ8ZhnT2UrQoBoB7aluMOOL7nDhMwICRUgceZfLh5SnzH2qbBZG6Ha7sY+ztZKAV/CINN5+dd66l3nfN3rNAHlfuzSRmaDo5BxHLP4Rp7nEKzH17HJIsPo4Pk5IGhChacydGznGFFcpdAOWSCD9NZkI1H9IcwOOn8fIY5v0nogoD92aSMjo5Bdbm+fTJZBF2jtU8WX6ZdcvLwUAXz847k6OzG7vWEENxUhkwYOs1CF1TvT5uQMro7BjnTG5YhSGitk8W7aJOc3LdcesSKoQrm1jhBoXng+QQRv8Jry+r9CNLE61a1P13UldHhMSiQ0sc3QjiFNpRk8Q5aJScPDlWwSMs948DyCaITp3soh0zwYdpZQgYHx34+jsr92YTOjkEVw90no4JTaENJFu9EdCWaJiePCFWwuJZ3qzg97vy6GQ5Bkx/wcsgEH+b1RUg62JjPNwldULE/ndSU0eExKGIuj92H40lQ19GF3/hZEwLApklyct9y2Z1xlMOfF+3YvbubdG5/g9acR3OEDrivHiHUJZfX1JXR9THQtKnbGNNYaH7qkqzbZBfQccnJ9XKzq7FbkQyePy9+6ZfE8lI+51Ejq0fzhOmu/WkTUkbXx4BpW7fxZQhCEz+qdSEAbJokJ48NjcC/9As9Wm8UOsG8jjCfBfnm+whZTwehC1z7s0kZnRyDunJj9+F4AuMnAAkYSosGukJ0tQathZ66vjOXogyAFg2ABKBFAyABEBoACYDQAEgAhAZAAiA0ABIAoQGQgOEJTZoGjWczA2du+blNNsRHzS8N0uP5fqdw4bul+UWk+7ly/YFIVzGeNYFwvELjZ2uvvbA/eM3Tyza/K98zx/90n67/7APqnQWLbPYSnR4M0j2inXlzpLfPVRvrFC5+dzDfThzPiG06t9+jntNxHcphZuvfJq9pFAAXTqFpAT353ItSYBo+iRme9+PnX6TnXnypsDxDO3NN5y0PiwsbSBrnFPZQSByfcXjvJbHyNVo77XBcBzNDK5eFkC+MsGkUjCROobGA7JEi/D5kXmaDaJFEPdYp7MJMHC85JKkzMWPmdqm0dkIGIJLKrmMd//Afz9I//siRx9pw3mbRpvi6ybwOMkdsl691qp3Cvu8a8+3E8Sx+7arW3jQoDSTEKzS7pWLh2eK77a+u0G/8ZR4Za4DhvJ1ZuSy6nBwRyqTOZFnlFPZ9V813BH/Juo3ahzZD3KiFu5ABaI9XaMxXPvp29arIiyu5CH/6qVvUK8XMSZq3ro8aEeoUtrETxwvJcWi5PQ5zJltBDlWwRzSFkZjA1cMpNN2affTtNwyuw/TEXHMsvz571bX2KlQu6dm2t79DnMJuOFzcoOspr9c2qC9bQD31aWOhwqYPQMdUtmhNkd1Fy3m7v3HRuAsZ6KqtdQr7vpsnjt/c3qKFUvgC7j4uiEZNKy1wewBoCPxoACRgKC3a+FMeaYKRIKANaNEASABaNAASAKEBkAAIDYAEQGgAJABCAyABEBoACRie0CbUYW3mqMYIEhCKV2j8bA0OawuxjivLuuyOk/6BicYpNDisPQzyNzOOPHAAeHAKDQ7rEPp0MIUJ9UAzKruOdUyzw3r3LDsSfAn3ACjiFZrdUrHwbPFNp8M6i4R1bq7vT3oIgIVXaAwc1jYssjNEFysyiwLgwCk03ZrBYW2xe55W59cLN3kACKGyRWvKpDqsD6/si5ZwafC5qs8CYAI/GgAJGEqLNv6UR5rAYQ3agBYNgASgRQMgARAaAAmA0ABIAIQGQAIgNAASAKEBkAAIDYAEeIXGz9YaO6yZiQxloHJYV5QBgAun0No5rAWTGspA1ODkuiqjzwOeMVoEhOEUWiuHNf/qT2yy+EVa1JWQdiAAwqjsOtbhdFhPSygDLqO3HPTjAYBXaHZLxcKzxed1WE9wKINBfbiMvN8KQCVeoTGNHNbMBIcyyOojylneFoILjwcJphun0HRr1shhPS3J4hcv0E5vjw7yOzwAeKls0ZoxyaEMdo067dL21gLN6T4yABUMQWiqezWJyeJnr9A59RmuE1l3VgHwAeMnAAkYSos2/pRHmiCUAWgDWjQAEoAWDYAEQGgAJABCAyABEBoACYDQAEgAhAZAAoYntIl0WOfIUfyDOgFQjVdo/GwNyeJ9ZAOVAQjFKTQki6/mcPMc0caGkDYAYTiFhmTxFYiW8czBOl24Xb0HIIDKrmMd05csnltrsaa1pr8iYFrxCs1uqVh4tvimLVn84eYZunTatPsAEIZXaAySxZtY65ldpb29VZrFnUcQgFNoujVDsngT0cqa6+CWk9drdlEB8FDZojVlYh3WADQEfjQAEjCUFm38KY80gcMatAEtGgAJQIsGQAIgNAASAKEBkAAIDYAEQGgAJABCAyABEBoACfAKjZ+tIVl8mdz2wxMeYoMwnELTD7BNhzW/f2nl3fI1z2OH9bOfdiQhZCY4lEH/YI96O7r8MNc4AJVdR3O0yNs+/6Cc6pn0UAbIiQbiqew66taMefjjN8vJZPqSxR/Slf18pD9G+YNQvELj1sw0fprC08ZPdljffPw6+brAxIYymKGVy7rbWLWNABRxCk13GZsZPwUTnCw+Z5GWe3utI2qB6aDyGq0R05IsXjF/0rgQBcBD90ITv/QTmyzehO9iIlk8CGQIQuMTfVJDGRjP62bLd1YB8AHjJwAJGEqLNv6UR5pgFAhoA1o0ABKAFg2ABEBoACQAQgMgARAaAAmA0ABIAIQGQAKGJ7QJdVgzcj2ynLjvgenFKzR+toZk8WVYZOfm+qp8DMECYTiFhmTxPnZpe3+DLkJdIBKn0JAs3gOvV7TM53UXFdk+QSCVXcc6pi9ZvGBrn+ZUF3Wn7Q8CmBq8QrNbKhaeLb5pSxYv6a0PusSLyz1R1fzKEwAfXqExSBYPQDc4haZbMySLt+CbLFv6ruUhbZ7bol7ji1EwTVS2aE2ZXIe16NL2xRWe/Owsrc7vGI8XAPADPxoACRhKizb+lEeawGEN2oAWDYAEoEUDIAEQGgAJgNAASACEBkACIDQAEgChAZCA4QltAh3WxfzVesLzNVCPV2j8bA0O6yKZEyEvu78htndjzXAQAODGKTQ4rENgV8A8rcNtDQJwCg0O6wBEGftozUAglV3HOqbSYS1hi8y+FC4AIXiFZrdULDxbfFPpsGZYuPO50xqAOrxCY+CwdsPCnYfhE0TgFJpuzeCwdpFd7yF3NYihskVryuQ6rJk+HezN00l0G0EE8KMBkIChtGjjT3mkCUaAgDagRQMgAWjRAEgAhAZAAiA0ABIAoQGQAAgNgARAaAAkAEIDIAFeofGztcYOa2YCQxlIds8OyqgeqgVAjlNo7RzWggkNZSBFubSvyqnyzAFQxCm0Vg5rNkVOaiiDwyu0P3BuL9Jyb4+Q8BOEUNl1rMPpsJ7kUAYFd/YubW+1qCeYKrxCs1sqFp4tPq/DemJDGbBHTiciXCLaCWulAfAKjWnksGYmNZQBX3ueIbqorg+Xt903XQCwcQpNt2aNHNYTHMqgKFi+FOwZ5lEA/FS2aM2Y3FAGMyfnac+4vttl9zZiGoAAhiA0PtEnNJTB4gXqn75Es+pzS7RDlxEKCwQA4ycACRhKizb+lEeaIJQBaANaNAASgBYNgARAaAAkAEIDIAEQGgAJgNAASACEBkAChic0OKwBGOAVGj9bQ7J4C64Xu2Nk2XBYg3CcQkOyeDdyHRs6b3U2nrKbxPNg0nEKDcniAeiWyq5jHdOWLF7aZFbPqzJZvHvyFQB1eIVmt1QsPFt8U5csnm0yG/vK/nOGDuZtCw8AbrxCY5Asvkz2w8Eiv0zLohWdR45dEIBTaLo1Q7L4CnbP0tL+Bq01vRYFU0Vli9aUyU0Wbzyv49v85nUgABXAjwZAAobSoo0/5ZEmcFiDNqBFAyABaNEASACEBkACIDQAEgChAZAACA2ABEBoACQAQgMgAV6h8bM1JIv3IMMZWA+wEeIAVOAUmn6AbTqs+f1LK++Wr3keO6yf/bQjCSEzqaEMxE/F5ikhpm2ybD9CrAhxACqo7Dqao0Xe9vkH5VTPBCeLZ0fBZSGmC8vqvYIdAr1lVT+EOABlKruOujVjHv74zXIymbpk8R4Or+wXEhJKJ/ZB3n4D4BUat2am8dMUnjZ+ssP65uPXydcFJjZZPADNcApNdxmbGT8FkxrKAICGVF6jNWLCQxm4sLuKdlcSgO6Fpm4GTHwoA5PZOaMVZWFn14MAaIYgND7RJzWUgQexnZcH9ZUxDgp3XAGA8ROABAylRRt/yiNNEMoAtAEtGgAJQIsGQAIgNAASAKEBkAAIDYAEQGgAJKBWaM++8BLd8aUH6QOf+46cLvz9Y3IeACAcr9C+9chP6dc3/ok+8Nn76aHHn5WDh2+87mX0Z/f9u5zHy+pwO5o1ykSpn1MpB7b8TuH5VTad2tyks+pZFn+mNHqDHc6yrDC3dUb5s75RIXZdqrezOC96vCaYOLxC+6Ov/0COC9QcPkP0N3fljmpeVtmyVTmaZZiDWTpYN8YfXiS6V5yQixf0PB7xn4/Uv7xyUn1ZfGa5V/J77W5vUW9ggjNH+JsubBfmZ9meM1v+cXDUpXo7Y8oH04BXaI8983P1ys+ff+tH6lUZv6NZO7CtE3BmhVZCT8jCIF5ml7a3WphNByzSBa/Npq07G0wzrW6GfPNffqJe2VQ4mts6sBk2b5qj7wuhBFpir7uqLgAEEiS0Z35xLX135Z3qXc4jP/G0enWOZsOB3Yxs9P2+Mr0Vu42Mz4XdgEbu7A7LBxNBpdCuu+aYFNmVP7yF3r35PVraKoaXu+lGRxgDQa2j2XBgNyVvXQ7pyv4CFX2W5jVSWFCgIvn6mrmz25YPJg2v0H7zza+mr3ziXVJk77/n23TDNS/Q4z97QS3N+MDbb1SvTGoczaWuWUN067JrtDhdILu285TlgB++OxtMB16hPfvCEX36y30pMh+/8/7Xq1cGtY7mGVpZ57iL1m3vw03ajDp7VeuyJO3MqsVpyy6dneUbNaoVSuHOBlOBV2ifOvVG+v6Tz6t3ZfjX/XpHYB6+Xqp1NC9ekEF09oXYdEtx7AzR7ZF9LO4+Loh/5bABMY5p87PnaE50+fTd0KC6OGnp2AYTR60fjZ+V3fXXD9EPn85ufNzx3tfLlswlMgCAmykxfvIIEDvIT492cKMCJAIOawASgP4fAAmA0ABIAIQGQAIgNAASAKEBkAAIDYAEeIXGt/w1/FpP5vtXf+6Bwbwc27Vs5kULcD8buaB5Ko6qqHNE83I7H7VrXqy7u/BlRVVd6rZDfbdc+fJnjKm+rkz5e6ViBvBntbugrjzQBqfQbPH8+JPvks/Z7r/jHfI9v+bph3eVrTMZ+ej1vko2kR8yY2S7nWuaRba0b4x879PpS7PWATdHxnsc0VU0cnf7RlIa2yKHlMVYYmLzdcfU1fxejMO75b4FXpxCe/gTc+pVxo3XXSP/vvWGl8u/mhv/5J9rH3RzCqXensfDVcg1LVqZc1vUK2RiyVI30ep5zwnsdkT76cDd7aNBXri4fN2xdW1L6vImG6fQbEFpflkIS8Ot3j0ffJN61xAz17TPeS1tNRUncIztpgt3tw/p8l6PS9cUm6+7K4tRKKnLm2CCboawqLa//3Sh9eLXq7eecFyjFTncPGclbjdGttu5pr3O6z3qLPd6a3e3iVEXTovWIApPdb7uppjuATi8R4EgofG12fKvvUa+/snPfzEQ13eeeE7+LZMf6NnVedoxxaSvA1zdEq/z2nZQ29QtN+jA3Z1jXqPN0TnnzYk6qvJ1uwipq3mt1XbgdMS+BV6cQlv9xqPyLwuKxXTrlx6Sr3ni67Uzc8fla56vb5AUCTjQdq5pXzel4Hh2UFg+S3N2gtDDK+LKSS0fZldIrlu3vDXbYROar7tuX3RN6vImGKfQNsS1l76z+J4Trxi85on5wofeLG+Y6OVNKeSa5hsf0nltdnV2peOZNtY8v8rZ8oEjWqzj5LxoTY27nLvnV2lvECGrK3e3A3lS6l//uu2wCcnXbdd12KQub8IRrc4R3XM//+mInaMeLRyJFs1BeVl/Y+GIFjaOBrN2ehy1dTD1dtR8CX8/XyZaTkc5/aONBeMz5ro1/Y0j0eBUfKaqDpq6banaDvf65b4YzK9bv72cjhbkB3zzXfBne+J//dr8Xl39QQzwowGQgKCbIdNNecTE+N3Jm4Q6jDdo0QBIAFo0ABIAoQGQAAgNgARAaAAkAEIDIAEQGgAJgNAASIBXaPxs7bUX9geveXrZ5nfle+b4n+7T9Z8t5kvL4Iej+mGoelBaGi3L89tY9q15hfAHWdlNkrlXJ6GvQLq2jXWq0AjZdhrzxZStSs2P3C+F75bmF7GT22eY6w9E7ls83G6LU2haQE8+96IUmOboiIfBZcL78fMv0nMvvlRY7maYln0Bn+TsBZPfFVN/jq6IrwYnczfCKSyu2W5udn3v08ZaxbBaLn/2Ep0ebP8R7cybVhyzbqazO3a/FL/r2v4BYpu8ifqDUXFVtjlLAWiLU2gsIHukCL8PmediqJb9/gHtmWbO2LAEZjgF8d313lZu3dk9T6vzVa5pHRrBDL/AIg8b8R63XzwUwkFkdJPcfoZWLgshX1hW70EbKruOdfzDfzxL//gjn/nTYJiWfT7R9iLWbWOGUxDIVk2l7JUxTKriHkhrTIvQCLH7xYW1/Sx+JLcfPbxCs1sqFp4tvtv+6gr9xl8+pN5VMxzLPiNaQBUty3e9Usaw+tvhFLhVEyf/+U0hItqgql6jxGhNDzdPqesm8zqoOqxA9X7xfbdi+1n80cntwbDxCo35ykffrl4VeXElF+FPP3WLelXHMCz7GtXNEV1OziJaLzZ1jePpoi4ui+ueVdElXDdDMHgwQiPMrFwW1018TWhiXme5upRV+8X3Xf/2N0tuD4aNU2i6Nfvo228YXIfpibnmWH599qqYzJ+NLPsRYQFkeIS6tLcGdjgFjbzuCRB6gxBzTkL3i01p+5HcflSJUEkXNLHs14QF2N00ul18fbInenPBTaE4V81wCrEskrxROdv29nfIfnFT2H4ktx9ZEgtNoFqdIua1SDFhO7N4QZwstEqz6ld6aV+cTPoDiyfpYPDdWVqd36mILOxCiaUQTTkc2V3cIVpS23bs2BLtb1w07kKadasIs127X3zfzbd/Myi5feD2gE6B8ROABKRv0caS8miMyRktMcl1Gx3QogGQALRoACQAQgMgARAaAAmA0ABIAIQGQAIgNAASMASh8XMZ/RxGPaMpDeLj+X4nMRzW+nXFd0vzi3ThsDb3IUaQtMMrNH621iyUgQ0c1nndxshhLdZxZVmXPSyL0/TgFFq3oQzgsPYx0g7rwn50OChAFE6hdR3KAA5rD2PjsO7TATJ/tqKy61hHcCgDARzWPJXHEI6Dw3r3LDsSfFlXQQheodktFQvPFl9MKAMpCDisHSfrKDusRat+6hidm+tHWo+AjVdoTLehDARwWLsZSYc1i+wM0UW+gQSRtcUpNN2adR7KgFseOKwdjKDDuvZGEIghRiXdoFqdIua1CBzWOSHfHY7D+vDKvmgJlwafq/osqAd+NAASkL5FG0vKozHgsAYxoEUDIAFo0QBIAIQGQAIgNAASAKEBkAAIDYAEQGgAJABCAyABXqHxszUkixdMbSiDbOR+VRkgHKfQ9ANs02HN719aebd8zfPYYf3sp0NG7iOUQV63MQplIGpwcl2VIe1HGC3Shsquozla5G2ff1BOTUAoAzejnSx+kRZ1JaQdCLShsuuoWzPm4Y/fLCcTJIufklAGXIa2JYFGeIXGrZlp/DSFp42f7LC++fh18nUdCGXAU7n7NcqhDAb14TJM3xKIxik03WXs1viJUAbjFsogq48oZ3lbCC70JgpwEaqSbkAoAzejnix+8QLt9PboIL/DAyJJKzRueRDKwMEohjLYNeq0S9tbMT0MYJNYaALV6hQxr0UQyiAn5LvDCWVAs1fonPoM14msO6sgDhg/AUhA+hZtLCmPxkAoAxADWjQAEoAWDYAEQGgAJABCAyABEBoACYDQAEgAhAZAArxC41v+cFgLpjhZvEaO4h/UCTTBKbRuc1jDYZ3XbZwc1ppsoDJoh1NoXeewhsPazWg7rDMON88RbYjjod6DZlR2HeuAw3rCHdaiZTxzsE4XblfvQWO8QrNbKhaeLb6YHNZwWPNUHkM4ug5rbq3Fmmp3AAjBKzSm2xzWcFiPk8P6cPMMXTpt2n1AG5xC061Z5zms4bB2M3IOa2s9s6u0J7rns7jz2JgIlXQBHNZuRs1hzd1xYx3ccvJ6zS4qiCKx0ASq1SliXovAYZ0T8t0hOaxBp8CPBkAC0rdoY0l5NAYc1iAGtGgAJAAtGgAJgNAASACEBkACIDQAEgChAZAACA2ABAxBaPxcRj+HUc9oSoP4eL7fSQyHtX5d8d3S/CJdOKxzNwJPeLbWBq/Q+Nlas1AGNnBY53UbL4d1/2CPeju6/DAzK3DjFFq3oQzgsPYx+g5rpGrqCqfQug5lAIe1h5F2WB/Slf18ADIGH7ejsutYR3AoAwEc1jyVr3NG12GtzLSy2zisYzc9eIVmt1QsPFt8MaEMpCDgsHZ0KUfTYV1kkZZ7ey27odONV2hMt6EMBHBYuxn1HNaK+dIOB6E4haZbs85DGXDLA4e1g1FzWFvwXUzksG5FjEq6QbU6RcxrETisc0K+OyyHtfG8Tv7wIYd1G+BHAyAB6Vu0saQ8GmNyRkpMct1GB7RoACQALRoACYDQAEgAhAZAAiA0ABIAoQGQAAgNgARAaAAkwCs0fraGZPGCKU8Wn+/HuO+BIk6hIVm8ZrpDGbDIzs31VfkY69gGp9CQLF5t6VSHMtil7f0Nugh1dUJl17EOJIuf4FAGvF7RMp/XXVRk+2yFV2h2S8XCs8WHZPGCiQ1lINjal5Yl7jrutP1BmHK8QmOQLH7KQxn08m4z75O9g/zKE8ThFJpuzZAsXr33MWWhDEBzIlTSBQhl4GYEQxnwj82WvmsZcL0KKkksNIFqdYqY1yIIZZAT8t1hhTLgu7/iCk9+Ntuv5jEBccD4CUAC0rdoY0l5NAZCGYAY0KIBkAC0aAAkAEIDIAEQGgAJgNAASACEBkACIDQAEjAEofFzGf0cRj2jKQ3i4/l+JzEc1vp1xXdL84u0dVgXE8XrCc/XmuIVGj9bQ7L46XVYZ06EvOz+htjejbVsfCmIxik0JItXWzr1yeI17AqYp/WoMaTAxCk0JIuHw7qAKGMfrVkrKruOdSBZvGCSHdaSrPvMwgXN8QrNbqlYeLb4kCxeMOnJ4lm4ld1nEIJXaAySxav3PqbAYc3CnYfhszVOoenWDMni65hgh7Uku96L2J3AQ4xKukG1OkXMaxE4rHNCvjsshzXTp4NBzwK0AX40ABKQvkUbS8qjMSZnlMQk1210QIsGQALQogGQAAgNgARAaAAkAEIDIAEQGgAJgNAASACEBkACvELjZ2tIFi+Y5mTxxn6tHqoF6nAKTT/ANh3W/P6llXfL1zyPHdbPfjpk5D5CGeR1G59QBlKUS6LuspxheQmnh8quozla5G2ff1BOTUAoAzcjHcqArUgD5/YiLff2CAk/m1PZddStGfPwx2+WkwmSxU9wKIOCO3uXtrda1BP4hcatmWn8NIWnjZ/ssL75+HXydR0IZcBTebDu6IYyYI+cTkTIffOwVhq4cQpNdxm7NX4ilMFYhTLga88zRBfV9eHyduiPGHARqpJuQCgDNyMYyqAoWPXj08ymDQRphcYtD0IZOBi9UAYzJ+dpz7i+22X3NmIaNCax0ASq1SliXosglEFOyHeHFMpg8QL1T1/K9znF7ldgAuMnAAlI36KNJeXRGAhlAGJAiwZAAtCiAZAACA2ABEBoACQAQgMgARAaAAmA0ABIwBCExs9l9HMY9YymNIiP5/udxMXRCuZnNdY8OKxLwGE9WniFxs/WkCx+ih3Whf0Kh3VbnEJDsni1pVPssJbr2NB5q7PxlN0knp9OnEJDsng4rEG3VHYd60CyeMGEOqylTWbQjc7sR6A5XqHZLRULzxYfksULJtVhzTaZjX1l/zlDB/O2hQfE4BUag2Tx6r2PCU8Wn/1wsMgv07JoReeRY7cxTqHp1gzJ4uuYXId1gd2z0mxb240GXmJU0g2q1SliXovAYZ0T8t0hOaz5B099RgbBMq8DQTTwowGQgPQt2lhSHo0BhzWIAS0aAAlAiwZAAiA0ABIAoQGQAAgNgARAaAAkAEIDIAFDEBo/l9HPYdQzmtIgPp7vdxIXRyuYn9VY8+CwLtGJw5qR+9Z6rgbndTReofGzNTisp9hhzXU/JcS0TZYbQYgVzutonEKDw1pt6TTnsOaBzmw9urCs3it44LIe0K3GWcJ5XY9TaHBYw2Ht4/DKfsEdIQ2iyCJfS2XXsQ44rAUTm8MadIlXaHZLxcKzxQeHtWBSHdagU7xCY+CwVu99TLjD2oXdVbS7ksCNU2i6NYPDuo4pcVibzM4ZrSgLO7seBNXEqKQbVKtTxLwWgcM6J+S7w3JYexDbeXlQX2m9rrgrCzTwowGQgPQt2lhSHo0xOS7kSa7b6IAWDYAEoEUDIAEQGgAJgNAASEB+jfb0Z9QsAEC3EP1/ocgVv8Sqh+IAAAAASUVORK5CYII=;" vertex="1" parent="1">
          <mxGeometry x="40" y="30" width="210" height="688.76" as="geometry" />
        </mxCell>
        <mxCell id="ZfP4bqIfxaH6RmqjadKB-5" value="" style="shape=image;verticalLabelPosition=bottom;labelBackgroundColor=default;verticalAlign=top;aspect=fixed;imageAspect=0;image=data:image/png,iVBORw0KGgoAAAANSUhEUgAAAKUAAAEUCAYAAABKyva+AAAAAXNSR0IArs4c6QAAAARnQU1BAACxjwv8YQUAAAAJcEhZcwAAEnQAABJ0Ad5mH3gAACH+SURBVHhe7Z1fjBvHfcd/PCex4ySOLdgF2gS25JCn5kKnNlQUBvkgyA8CyHNd1Q8EqjycKhhkgzYgG+AeDFwhCDjABe7BJOzAIRE4uoc4waFIL6iPLPxgQQ/HJEgEOzZxhUSmkgwbieEkilPEsgHZ7PxmZ7izuzP75/jnJr7f5zC42ZndmdmdL+fPcn6c1JABBGERc+I/QViD0lK+4fwjLOJe8X9/MRJlqv4qDyDsYVh7UPj2Fx5RDmsHeCCx96Tqv9u3oqQxJWEdJErCOkiUhHWQKAnrmPhEBwfoUWA+V/7wERy6gz4TJmiiMyFuf/a68IWDD9wryPNQSd0HqZF7HBoDERWIuw8qHREl6Tzpic83rooIJHh9MF7ND9GFXYVGXkkn/zxgdKeihCnOmweRhImK8sbNcb6xPAL1/jUYDq9Bvw5QW3Iq3cGNG7ZPQqv4JIx0iYIsXnLjhxegtHHUJwrl+uE5yNaOQqpyXsTFYPA85FNHYWdFpsHcOsAWK0Sh6aZbVvLZrh4UFxNJmXj/+cTDX/Q45B/++s8DYWGkq9+AcvdF2PK0VILCcVb5l+Ayj2Ot1+oLUG7/EKppHss4CNX1M0zVTVe4Ho5Bs38Gcq2XDPF+WB5LZyHbvgbNgghC0qehqh4TE2Mmg7rPfOIW4ZsAnZeglXsUFlGEg5dho3sSTvjFkX4ESjkpXA08/gXYjKNKUx7E1Ji4KL/zkzc9zhQWxqDxjCs8zkWoZcR4bfM4DLdPwygql4GM8Hq5CDt94R0XYx7ENJi4KHFmrTrknX+6MxAWxBVepnYY2qrw5FhN1+12+6DX3hFYCFVSVLyCMQ9iGkxUlHOplPB5ufu2ONmok5GnQNtbsnHcev0SrMpJjKkb5l3uYZh3Ve3FE38IFnI81GVwBXog4pN09cREmKgoP6zexV/3qA7xh5lby2hwEpStfVO8rmGTmhXfbBxf52TOAtQremGL+GxbCv8gzGdZK63M9jtrZ6FbPj6Kd/LwvYpiM/IGCXUqTL371rnxOAbL6iujwlMwbAMUR+8ITwGwmbL3lYwyJk09AwusRVZn0oXmBajDWciINIq9M9BvHhOxDMyDDR16TJhOGswtASzqVU+MCS1dsxSnR6FvdAjCCkiUhHWQKAnrIFES1kGGYxZDhmN89r0/H4J9vEGzb4KwCRIlYR0kSsI6SJSEdZAoCesgURLWESpK9d0l+qVTjz/3rddGYSMGDcinUpBSXb4hloZ1oOKPY85voTho5D3xeY9poT4N7TmjfJEBNPJ4bsWzUDiYV0ecp3Ge9FT8accpI6HDKEq/0K5//QH+3uyVrx3mx+hH9+YTX+HHWnJ16A+HMGyXAbo1yHiUV4Y2xg3bzAfQKrpC6VRSkKl1odzGeOf6bi0DKb9yZfrM9es5/TkRBPJi5SlBBqrbbrpIrt534reryor4GEygjPsNoyivnF4QPoc7b3WMvw7e8Sn+X3Lnc69Hv+TNLIB/cbdLAU6gKqHnGHqxVna1xf6X2+6ax0ITUNfQWvXZYrukq+vA9RNyTgBdXqw8Vdc0cqLsqoz7EKMo/eKT3MVEKMHW9OmjXxBHIfR3oMv+5XRGMSNhrHAz2cHWBj+37DMfzHCbhS5saO1ukTQslpxz4hqMmfKaHsnLuB+JPdFBAW7+8l1Pq4j+2kP3BMeUEuyycSxVZKpjrdG2pwVqQRHjMjXIYtfpMaoOkp7PCl80PaNtrZf+Dv+oxDcgmyBxy7gfiS1KHEue+NLnuf/3H3w4EuKr79zg/7Uo46mg6HBM2efdWauYj+zOBpd7/H/WaA3mEuccl71ptZKVcX9hFGXtwlv8P4oPhffQ9y5xPzocXy4tHOB+DJeTn+SkobqCg8Uu1JacWa1sEVs+88HoVm0AWxu8M47+4YDcArfjLjiD2Rm2WgnKuJ9hrRgHnn5F+OJz5d0PhM9Hvz5kDeCQtZRD1lL6aA+ZFIasYpgP6Q9Za4krlYZsBsxhkxp2nBvW5cXtMo9nM2AZ4KShpO9co56Dxch50g2mE8wb065r0lDT1SPTkvcVr4x6ru2qPj4ujCVKI4lEyRBiUcOkGKTzVqRMQ3WKiBWkEKQLCsIVpu6csUXpcfoyBtnfoqT1lFZC6ymJROi+qfF+Q0SMB4kyMQVoOsMexTXFr2kQk4BESVgHiZKwDhIlYR1kYmsx+3X2Ta+ErIReCRGEVZAoCesgURLWQaIkrINESVgHiZKwjlBR4muiu5vOim/0o5tr/IIfIwe+3YPbn31NHLmghWDAlLRTEVZ8wQUNjnGfKVyA14/iVDNW32IIz3kGs9uANSGGR6x+1+SP96nmJV2+0Qi/FyKUuXM7+q2Q5XvL3964yf0IHn9U/Svux7Dr79+E9/7lq/xYBVd0d302Bp3NlmKglYN6313Q4FpKKOHtsmt2i3bkRRAmucz1F+CyrpJROMWeknYfShsZnzBzkOsVk4nEkH+hKfNBM2G37NvVeXaR4V6ISOb+7ce/El496gvcQ9/9H+4iQZPa1qZSCR3YbCU0ASicYBUtzG7RGlKYMHDSVc1mnQNorDLht7eVzUPTUF3H/U3WPIIordSht2r6UQENsfIPQb0XIpK5P3zwEVx79wNx6EV22ZIr//hl7lR++uv34Gdv+4zH0otQyrXcXbo6m9Aqn0i2vAuvyZWc/RmxUrs1WArrXwdbsNHVCJ+XxSeITBVWshHpqcTJPwz1XohI5oqH7oAfM2HpwFbyR4/dL468Ir1ZdVrQh39wGb584Fbud3Hsm6VBlrfrRrpQy8jxltqtKeGbJ5Rfo8A1jE5XHDo+U1szD0GLxUKzDdnaUswfBYiZvwfTvRBRzP3d/XfAj/73D+LQRXbbj7F49KsOuSXlnIPus58MzpfSiyWAjS3WRQ7gcs9vhaiOKdUFsiK8X/d1/wjrivGnVFhcr2gQRnfHsLGnzgqSCa2dZT17LIUxYuTvIexeiDDm0Jb7v68GRTk22G3CBmx1WLfKfIm6LjZmW6/3YFXXjPG4XMAENzBkkPBuPavfPLSwDPWkkx5T/ibC7oXQMvfr927CXx64Df7iM58UQZMCu3A2xyjW2MxiMXHXla6uuN1rp6F0s47tdPAnYBwbcu8stwOVDMu/vmwYzzoToV6xCPjLMUZi5W/Gcy9EJHPH/mMAt7G++IF7Pi2CJgd24Tn2Vwo0k+qY0vTzeAWxMSibJRfmYWd0fgZqWf9PwAgKTbF5qDyXv8fRnysRLV8ocfM3otyLCCHM0HpKK6H1lMSI4LdKZD47e0iUHsh81gZIlIR1kCgJ6/BNdA7wQGLv2c8THTKxtZh9L0qCsAUaUxLWQaIkrINESVgHiZKwDhIlYR0kSsI6SJSEdZAoCesgURLWQaIkrINESVgHiZKwDhIlYR0kSsI6SJSEdZAoCesgURLWQaIkrINESVgHiZKwDhIlYR0kSsI6SJSEdSh23284/whij6FfyCCsg35LiLAOGlMS1kGiJKyDRElYB4mSsI6pTHRuf/Y63LgZ7xcGaXJF+JlKSxlXkEHOQyV1H6RG7nFlQyR/3H3BncI6T3ri842rIgIJXh+MV/NDdGFXoZFX0sk/z/fG6VSUMMV585Bguk+KXSdEuSrn+ZGLL2/PvTnXRuXJ47XpmsLj3esoDcUl2rUtgql13088/EWPM4UFOQL1/jUYDq9Bn2+IJB8E4sYN2yehVZQVy8BKK15y44cXoLRx1CcK5frhOcjWjmoqJ4TB85BPHYWdFZkGc+sAW6wQhaabblnJZ7t6UFwcxhHI9U6ZKxbz5ftUiTz6GbHfeEie7JrV3kko957xCQ2JyA8JuVcH9VleU/ZsH5+Zjin/ePND4YtHuvoNKHdfhK3AQ2UUjrOKuCS2TGaf6NUXoNz+obLX90Gorp9hqm4a9sE5Bs3+Gci1Xoq5Tw7LY+ksZNu+CkifTrb3t4HSyhnoraofQIV+H7q5jLLfeHSeg60XWaIVWOb7tgZb69D8pnyvUUxNlN/5yZseh3z/578KhO2azkvQyj3qbEQ6eBk2uic1e30/AqWcFK4GHv9CcJNRHaY8JkXmNKxkz8KSrrvHD2DXEKflKmxt4JaYByG9+ChT5ctB8YXlN+17jWBqosQJjOpMYWEMGs+4wuNchFpGjGM2j8Nw+7S7Eanakni4GNjre9cY85gMhSYOKb6p6W5Zqy6GI7HGbygqEM8NP3ig723M+TEi71Wpi9H4eDLMtPv+zfsfCV8Y7s1maoehrQpPjmN03W63b9jr+4hmr2+VqHgFYx6TgomvfRhqa7pxLhuObDv33iuGC9Ppuh8Rz+2gs5uwNs2Q/CLvVR1TPjXRXdmmIsq5VEr4vNx9W5zsYtwsG9us1y/Bqux6TN0w74YO6/f6Rjzxh2DBv5nt4Ar0QMQn6erHoVCBetgkhN/7EWhtmiZo52GtdhG6OInjrRh+uC8CmMbOuvxmda8GpiLKD6t38c2JVIf4w+J04SZwEuR2PawVWfHNxvG1ReYsQL1i+BQ78dm2FP5BmM+yVlqZ7XfWzkK3fHwU7+Tha6XYLLUx0cpzJmi94il3D/IOy2PUxeJ48SLkFg6JYx98rH0G+mJW7LgLUDeKTJPfzO5Vz8zGlDo3HsfEHtpCRIWnxF7fcpxzCoDNHr2vZNRx0DOwwFpkdXZZaLLKg7OQEWkUe6xym8dELAPzEN2nbIVSSwCLetXvHtEajigcgp1RuY9CLXvO+Kqps/kC5EZdtwS78JDW1Z8fEnmv6rM0vY/dHbR0jbCOmU509h/Bbz4mPVP9OEItJWEd1FIS1kGiJKyDDMcI6/CNKffn/tKETbwBc0/97G1xQBB2MHfhrT8KL0HYwdzmo3EWoRLE7Ji77RM0ASfsghRJWAeJkrCOUFGq7y7RL516/LlvvTYKGzFoQD6VgpTq8g2xJKwDFX8cc/71g4NG3hOf9yyP1qehPWeULzKARh7PrXi+fw7m1RHnaZwnPRVf2sozUO+tU/GFdSpu2tzh9TItjZP5G9KPnS9D+4w1ded9rir+5xmnXqIxitIvtOtff4C/x3zla4f5MfrRvfnEV/ixllwd+sMhDNtlgG4NMp6nV4Y2xg3bzAfQKrpCwQeYqXWh3MZ45/puLQMpz/UMmT5z/XpOf04EgbxYeUqQgeq2my6Sq/ed+O2qb1lYNK1Vg5BRAMUWexRtkfcQ8FEByyEq/8HWBnR5DEDPYIRkzJehv28F5dluu9Z48RizXoyivHJ6Qfgc7rz1Fv7/4B2f4v8ldz73evRL98wC+Bd1uxTgBK+InmPgxSpqFVebsooarXUsNJ3Kaq3q7UkY6eo68PoLOSeALi9WnmrSSoiCfSDXNHUihZVT7DEKzaZhUbLKALY22JW5MpTZPXc3tvTiM+Q7s/tm7KZejKL0i09yFxOhBFvTp49+QRyF0N8JPPwRowe0ws1jZUWVfaZ0GW6r0IUNrb0tkobFknNOXEMxU14TRQhH7Qkk6fks/48tSaIubrAFXJOlZVjGe+5uBA3DQvKdyX2PSF4vsSc6KMDNX77raRXRX3vonuCYUoJdNo4rRBfl7QZaUMS4TA2y2IV4DIyDyAqMg6k789Pf4R+V+IZju2IBltfrLJcWrPqFx3oA2T3zLi7m+MsRVQ5Ki2nxXHQfVnO+se5b1h1zCUdERuLWS2xR4ljyxJc+z/2//+DDkRBffecG/69FGVsERYdjyj5v2lvFfGTTPrjc4/+zRiswlzjnuMT/BO+adBVW+LB6DTZFkCRd3R6NvZBubSniWYium5W7lhEfeDzSdeEh+eL1ofet1F1EexGbuPViFGXtwlv8P4oPhffQ9y5xPzocXy4tHOB+DJeTn+SwAT0+NXzAS86gXLaILZ+VU/SnW1ZWOdqIPrfAbZoLzmA29id4HArLTqvVcjQUAMXpCDNCLKLrdkXjfLC1XThDl+8s7ztRvQiMoqyzsaKcYT94z6dHfnTIueP38smQjN81hWXxUMWgXDep6VQAG4RcfV35WRYvnUoG2GSSnbMsJgoFWMaE1cF+Z805p7TIZ7Ayb+w63S6qA40YXWhiWKu1zm/UZdCoKK2irLzwbnU0OZL3oIzZtONtTb6zvO9gvcSANc8cePoV4ZsA/fqQ3fOQlWTIPs0+2kOmuSH75DCfoF3G5XOeMNZqiDDH5epqSjIN1eWGnlMETOCe87zpIP0hqyDjObIcwev8yHTEPWifgVvuMjvJf4+6e/DmL/PwnSefH+YVI18Hw33L61XnXuTDd88J6sXMtSGtpyQs4434Ex1CovvWIvja5ePFbO+ZWkrCMqilJCyERElYB4mSsA4ysSWsgyY6hGXQRIewEBIlYR00piSsYyRKgrAF6r4J6yBREtZBoiSsg0RJWAeJkrAOEiVhHSRKwjpIlIR1kCgJ6yBREtZBoiSsg0RJWAeJkrAOEiVhHSRKwjpIlIR1kCgJ6yBREtZBoiSsg0RJWAeJkrAOEiVhHSRKwjoUu+83nH8EsafcS7+QQdgF/sia71fXDvAIgtgLUvXfcVHSmJKwDhIlYR0kSsI6SJSEdZAoCeuYqShvf/Y6n2HFcWauQiN/H6RSwuWfF1sKn4dK6nHftsS+sM6T7nWpJ/mOWZ2Kkpbi8o2rvvNF2AhMm4VXzotjL4PG4+wambc4V3HORp2mcBOmPH33icQpe4L4Se35HYeZivLGzTF/n3XwPORTR2Fn5RoMh8KtA2zFeWB4bRGgLa/rZ+Ayu67QlGmdgzIcgXrfOd6eb0KqeGl0PBxegNLGUV/lHYFc7xnfBwE5D2u1i8IvcdNG5+6hrYS3T0Kr6HxYzGCep8JFgoKMUXY3/hxka0d9YjeVd/rMvPt+4uEvepwpLAhrIZfOQrbte0Dp01CN88D6fejmMnyfb07odSyv1Reg3P6hspXzQaiunwGoNT2iyWYBNrbUymZ0XoJW+SQTeUIKx9k1lyBqG+7Syhnorcoewk/8srscg2b/DORaL01tv8UkWDGm/OPND4UvhMHLsNE9GXsj8wBY4d2zsORpLQyY8ko/AqWcVzQLy99grYxa2SgK1kotHxfHCUAx5x6FRcOe5iMyp2Ela7iXBGX3wONfAN/e/3vCzEX5nZ+86XHI93/+q0CYFrWlSwxrDUQ3FmuMZMzrIuz0hZdzDE6UlcpEUYBOWBehlpFjNLWLVsI3j8Nw+7TYXD6cQhO73G9qhg6M2GUPw1Te6TNzUeJXmaozhWnp9iH2M9XCurFtNkZiXVWvGCFMY15HYMFX44VltzvtrLEhxopOWOoY7SlwGzIRnrj7ZB+y9mGorWkmWgnK7kWNN5V3+sz9+8/fFt694zfvfyR8IUR2L4dgISe8ksEV6MFhmPcrhI0n1+tHoLWpnzkb8+Jdoy49dj68yCZcz8Nq7wws76YGeZkuwWqc4YWkUIG6f9KTtOySqPgZMvfOezeFd/rMpVLC5+Xu2+I02KyVW8HZqa+FY7PqBj8+CPNZ1uUsuRMAbLW65ePOp5wJxu3qrsLWxkXILRwSx35kXmq3dR4qmbMA9Yqm1cDzWatVZPGlR2J1vzrSVRyfGrpkLc4Eplc8BS0RkrzsiBOfbc+2RTQxt3zkz4R3+nxYvUv7PtIfZuzCC0+Nul5nrMPcEsCieJKF5gWow1nIiLgia7X6zWMi8hDsjMZIR6GWPQfb1YNOnA7Mqw1QlPmkTgGwmb/xGmy1cidhxZimOkbzvxeUHIPlOpskKx+sSESr7yFW2dXyPAMLrKv2vvaJU97pQEvXCGtwGiRaumYpwW9UZj0D3ktIlFaCr6/kzHdvZsB7CYmSsA4SJWEdJErCOsiakbAKjTXjgzyCIPYCqUHqvgnrIFES1kGiJKyDRElYB4mSsI5QUaqvidAvnXr8uW+9NgojiElgFKVfaNe//gCfrr/ytcP8GP3o3nziK/xYx6CRh1QqNXJ5vlCwAxU8zjeU5VkDaOTxnIq76KBT8VzrxMnzNE5JT5+vROTvuwbpVOQ1eWdN46ABeXmucJ578LnQlexKWup5Mk81LHb5TecYy63D/+xjpD9ljKL0v7O889Zb+P+HvneJ/0dQuN/dcZYb+cGHnal1odweAr4KHQ7bUBJxkeBDLbaAXSyuHUKbmwamobrtHPfrzjLzXL3vnLNd5YtrA/myC7u1DKR0iuluwNboWXdg010p6yVXh74ox7ZrIsgoQ5uHt7nlYquofKhCaK16PwwqscuvlAmfRdQ53nLHIE76UyL2mPL3H3zIRVh96B4R4gj3Xy+8BTXmPDBRrWIFM1G5C0cLUI35YAZbG9Bl/3OKQUmh2YxeJaPLt9B0BN1a9azozuVQ1F3YkKrsbEILcizcOUxGAU7wD00v0jyW063Bmq5+E5RfJV1dB/4ZDTlnHKadvp/YorzrudfhP//2ENSPfkGEOKAwG6+8I44cpKjKu7SHTc9n+X/8dCbpNkz5ZrjxjiJARjeb5a1bV5j3DS73mFJLUHKyTsZITCuKrbWBXBnKrDi6VjVJ+b2kYbHknBPfWjEJ007fi1GUsvXD1vHVd25w/9//15XRWPPUS29wPzo5zpT0d3g7F2E5FwJrHWT3zLuNMcc0UuReTjitW2uTiWMAWxuszNl5mHcivbCWLSPGVt4erAVFDM/UIIvdrdeewMACLK/X2dNpwWrMe9KXX09PbaqN5d49nvSnhFGU2CJiK4juwXs+PfKjQ84dvxeunF4YxQcZ71OVrm6PxjNIt7a0666Dt4KMrM9Ur+CoEjYbW4CaNLbsyvjKqzscU/Z519YqislRHNJVWGFZd2trsCmCwjCVX4fnHGO5d0+cMoxL7O5bx8E7PiV8XpzK3sWnKrcQMKJHcTrCjBa5bFFaPvtSY8tdOMG78N4GdpvlXf76Bpt8ocJYCrUl8wTGT2HZaS1byuQqcflHiJZ+1/cQxbTT9zKWKI0UlnnrgV2v2210oMGbkgIsO5HuYL+zBmzCyYZ0i3wGPWhUlFZHPpAYwwHdpKBTAZzI5+rrmvGeM0Hpdln65RPREykT4n499xQFay3X+UUKicvv0KlknOdXX979PYQw7fQDsKadA0+/InyToj9kzxyXxY1crs46EwF7+MY41jJ64tjjGCrRHHmOep3Ef733nPaQ1fsQ37k4h2V+jnuo5NevD5lsPGk514k0oMx8ApGOJ0xFppWrsycjkem4+SOxyu9xvudjLLcOWU+y3DHSnxJSg7SekrAGqcHpdN/7Gt03IvFeqk8XW8sVhFpKwhqopSSshURJWAdZMxJWgd03jSkJa6AxJWEtJErCOkiUhHWQKAnrIFES1kGiJKwjVJTqu0v0S6ce601sg9+zqkvYKh7LOd3iWFO4jqi8/OmoYeLawLLsqPwxXr0Hb/6ztPz7OGIUpV9oyU1sc1DvO6ueh/069GJa+u0OJa92ObZVoUMOcr3imOYCSv7DNmRnaPn3ccQoSjR1UJEmtv7V5nc+93r0S/f0PGTjWvqNC19Nniyv0gr70ISYvSajAE32Icxx2x9iNxhFaTJ1QKtGCbamT/usG7Wg+WocS79JgHnlStGbbqpkqrCSrcHSpLrd9CKUci0rNt/8UyT2RAcFuPnLdz2tIvprD92jGVMiXahlxDgL99melOWSFiWvzROjHyZIQqGJ3e7ujdOIyRFblDiWPPGlz3O//GECRJrfBlHHlAuwGnvishtEXmN1m6zbbWehFtvIJooxTIz3OUZR+u2+8eda0I8Ox5dLCwe4H8P9dt8BeHc2A0N2bozVU+ypM5pNRC+zEWdWvzEmGoCNPelhDNBk15AHEYlRlOPbfSvwSppNy5GurijdcBrms17T185aDbpGy8U0VNfxTUERFMvXhHSgwn+cIMbPzBBaYnffOkyTIQdlnJfZgFJ/2zDRUc7zvOMzhUeBJry46aYjxEKzD3Vwfymi2KtDP2x8qzN9jUQt6yossKHEVIfQH3NoPSVhDVKDY7WUsyX4zcn0rfH2Ik+CWkrCGv4EW0piv0CiJKyDRElYB4mSsA4SJWEdJErCOkJFiVN0CfqlU4/358pzgW+vH++3Tv5yqen542SZTeFe+N47SoTci8fv8o0GS8/3XjVOmRM/D4xX69RNP5hHNEZR+oVGK899YOUWe8qK8z6UNvy7WbjlYo/A9/PTSpmZc7+WjLgX3ImiV4Zyz/2130JTpoP7+bjXb1d92wrELPNer8Q3ipJWnocxgMZqC8pt9ft8ZzEH1Na0HwhcKFL2bCYVA8294LYmUFqG5RKEbGGiI36Z93olvlGUtPI8BL7qSfOj9HyJ3gQ/fIF7wd9/Z6JhAelFrsr4wklS5j1eiR97ooMCpJXnCpqdLBz060YHjVWfwNSVRWoXHXIvKCwQaWBFs6NEjWWCMu/lSvzYoqSV5z66O6Bfs6yuG3UFlqlloe35sKjjLnXtpflenK7b2UEDu15sLBOtlI9VZsnercQ3ipJWnodg6o4CK85NwotB4F46sFbr8m1gnNbV2VjU2TEtBrHLrLBHK/GNoqSV52E4Gzp5Z8YdvuIcJrjXjOde+PjS3UHMcbjbWdyx2m7KHPd5hOHkkWQlfuzuW8e+XnleaMKwDc7ejNzhwDnJFsZx7s+9l8Zma7T5lYuzkad/hzIjuynzHqzEp/WUhDVIDY7VUs6W4DcFtPJ81szmeVBLSVjDn2BLSewXSJSEdZAoCesgURLWQaIkrINESVgHiZKwjlBR4nuju5u9kR/dXOMX/Bg58O0e3P7sa+JIxf+SNY4pgELokn3JABp5JZ28/H47JH1PuspLX1N4AExbxgfz8ZbTVA4RHrxpFu48p3jmDab8Mdx8jqcMgXA7MIpSiu23N25yMUrEu3Yedv39m3Dj5keeeBd3hUyoKYB/yX+cJfuDBuRTGdhZkecwtw6wNUpEXZ0jvnfFa/hXvSK8vwCX8XxTeCzUfHTL/jXl4ISbHMQ2b/Clr/8O21yGUXhiE5LpYhQlis3/DQ8exwnzE2oK4FnyH2fJPjtnCVed+L7kT1ehGvalf38HuuoiV3m+KTwxyZb9T9bkYEx2YUIyTSK77yh++uv34Gdvmxb6xkBd8s+XuEUs2TedEwU++K5mib8pfDeY1izqmLTJwTjsxoRkioSK0t8Cokj9Qn34B5fhb75/SRzpCTUF8C/5j7Nk33iORF06Jbsl1pKJoYB3DGUKnwS6criMb3LgXf6mL7upDCF1sMeEihL50WP3C5+Xm1VXsP/3z18VPhX3po2mALruLs6SfeM5EnUcpS4uZUOBbSffXlGtRFP4blAXM5vKIRnX5MA0XlQxlSGkDvYYoyhlK/nY/XeMxo3SIbek3PHkZz+pSyaqQhh8Aamy5D/Okv0kXaQJsXA1sDjWFB6XhMv+OZMyOdgt/jqwgMiWctr4zReil+zLc3wtGptFN8IqtsPiR88dTVW7bBTAmjRTeGKccib/AX5nIjeeycF4eOtg79lzUWIXppovxFqyj+eIrtY5h7klgMWRGrxjLf46qTAPO6OwDNSybSdNU3gs1Hx0y/415dAhWujpEKcMvjrYY2iRL2ENUoMWtJQ2EvzGI/ybHmKSkCi14GsiOUmLmKwRE4dESVgHiZKwDt9E5wAPJIi9IFX/HZ/oeERJEHuNR5QEYQcA/w95qnjKbtP1JwAAAABJRU5ErkJggg==;" vertex="1" parent="1">
          <mxGeometry x="370" y="30" width="165" height="276" as="geometry" />
        </mxCell>
      </root>
    </mxGraphModel>
  </diagram>
</mxfile>
